<?xml version="1.0" encoding="UTF-8" standalone="no"?>
<!DOCTYPE svg PUBLIC "-//W3C//DTD SVG 1.1//EN" "http://www.w3.org/Graphics/SVG/1.1/DTD/svg11.dtd">
<svg width="100%" height="100%" viewBox="0 0 4000 4000" version="1.1" xmlns="http://www.w3.org/2000/svg" xmlns:xlink="http://www.w3.org/1999/xlink" xml:space="preserve" xmlns:serif="http://www.serif.com/" style="fill-rule:evenodd;clip-rule:evenodd;stroke-linecap:round;stroke-linejoin:round;stroke-miterlimit:1.5;">
    <g transform="matrix(1.01242,0,0,1,711.95,-1063.59)">
        <rect x="143.113" y="2209.59" width="2011.48" height="1299.48" style="fill:rgb(235,235,235);"/>
    </g>
    <g transform="matrix(1,0,0,1,744.714,-1023.31)">
        <g transform="matrix(1.41089,0,0,1.41089,-1009.83,-1600.98)">
            <text x="894.028px" y="2799.72px" style="font-family:'IBMPlexArabic-Bold', 'IBM Plex Arabic', sans-serif;font-weight:700;font-size:84.396px;">Da<tspan x="1000.37px " y="2799.72px ">t</tspan>aset:</text>
            <text x="1250.77px" y="2799.72px" style="font-family:'IBMPlexArabic', 'IBM Plex Arabic', sans-serif;font-size:84.396px;">[0, 1, 2, 3, 4, 5, 6, 7, ... ]</text>
        </g>
        <g>
            <g transform="matrix(1.29274,0,0,1.29274,-798.307,-742.891)">
                <text x="894.028px" y="2799.72px" style="font-family:'IBMPlexArabic', 'IBM Plex Arabic', sans-serif;font-size:84.396px;">0, 1, 2, 3</text>
            </g>
            <g transform="matrix(1.29274,0,0,1.29274,-800.598,-605.545)">
                <text x="894.028px" y="2799.72px" style="font-family:'IBMPlexArabic', 'IBM Plex Arabic', sans-serif;font-size:84.396px;">1, 2, 3, 4</text>
            </g>
            <g transform="matrix(1.29274,0,0,1.29274,-800.162,-468.198)">
                <text x="894.028px" y="2799.72px" style="font-family:'IBMPlexArabic', 'IBM Plex Arabic', sans-serif;font-size:84.396px;">2, 3, 4, 5</text>
            </g>
            <g transform="matrix(0.863666,0,0,1.31818,124.722,-945.067)">
                <path d="M845.669,2806.3L845.669,3280.7L754.153,3280.7L754.153,3260.09L807.166,3260.09L807.166,2829.29L754.153,2829.29L754.153,2806.3L845.669,2806.3Z" style="fill-rule:nonzero;"/>
            </g>
            <g transform="matrix(-0.863666,0,0,1.31818,1001.74,-945.067)">
                <path d="M845.669,2806.3L845.669,3280.7L754.153,3280.7L754.153,3260.09L807.166,3260.09L807.166,2829.29L754.153,2829.29L754.153,2806.3L845.669,2806.3Z" style="fill-rule:nonzero;"/>
            </g>
            <g transform="matrix(-6.20301e-16,3.37676,-3.37676,-6.20301e-16,11491.1,1469.53)">
                <text x="511.967px" y="3236.95px" style="font-family:'IBMPlexArabic', 'IBM Plex Arabic', sans-serif;font-size:50.096px;">...</text>
            </g>
        </g>
        <g transform="matrix(3.64713,0,0,3.64713,-5736.2,-8589.12)">
            <g transform="matrix(0.788655,9.70048e-18,1.02426e-17,1,410.423,-1.12721e-13)">
                <path d="M1995.27,3133.3L1782.38,3133.3" style="fill:none;stroke:black;stroke-width:3.81px;"/>
            </g>
            <g transform="matrix(1.0045,-0.0703527,-0.0651101,0.939742,189.588,329.402)">
                <path d="M1991.67,3133.3L1980.27,3121.89" style="fill:none;stroke:black;stroke-width:3.79px;"/>
            </g>
            <g transform="matrix(0.926001,0.143003,0.132347,0.877516,-272.756,99.4405)">
                <path d="M1991.67,3133.3L1978.18,3146.79" style="fill:none;stroke:black;stroke-width:3.3px;"/>
            </g>
        </g>
        <g transform="matrix(3.64713,0,0,3.64713,-5736.2,-8455.14)">
            <g transform="matrix(0.788655,9.70048e-18,1.02426e-17,1,410.423,-1.12721e-13)">
                <path d="M1995.27,3133.3L1782.38,3133.3" style="fill:none;stroke:black;stroke-width:3.81px;"/>
            </g>
            <g transform="matrix(1.0045,-0.0703527,-0.0651101,0.939742,189.588,329.402)">
                <path d="M1991.67,3133.3L1980.27,3121.89" style="fill:none;stroke:black;stroke-width:3.79px;"/>
            </g>
            <g transform="matrix(0.926001,0.143003,0.132347,0.877516,-272.756,99.4405)">
                <path d="M1991.67,3133.3L1978.18,3146.79" style="fill:none;stroke:black;stroke-width:3.3px;"/>
            </g>
        </g>
        <g transform="matrix(3.64713,0,0,3.64713,-5736.2,-8312.78)">
            <g transform="matrix(0.788655,9.70048e-18,1.02426e-17,1,410.423,-1.12721e-13)">
                <path d="M1995.27,3133.3L1782.38,3133.3" style="fill:none;stroke:black;stroke-width:3.81px;"/>
            </g>
            <g transform="matrix(1.0045,-0.0703527,-0.0651101,0.939742,189.588,329.402)">
                <path d="M1991.67,3133.3L1980.27,3121.89" style="fill:none;stroke:black;stroke-width:3.79px;"/>
            </g>
            <g transform="matrix(0.926001,0.143003,0.132347,0.877516,-272.756,99.4405)">
                <path d="M1991.67,3133.3L1978.18,3146.79" style="fill:none;stroke:black;stroke-width:3.3px;"/>
            </g>
        </g>
        <g transform="matrix(1,0,0,1,-114.058,0.844034)">
            <text x="375.111px" y="2643.53px" style="font-family:'IBMPlexArabic', 'IBM Plex Arabic', sans-serif;font-size:110.89px;">Model Input:</text>
        </g>
        <g transform="matrix(1,0,0,1,121.221,0)">
            <g transform="matrix(0.863666,0,0,1.31818,901.273,-945.067)">
                <path d="M845.669,2806.3L845.669,3280.7L754.153,3280.7L754.153,3260.09L807.166,3260.09L807.166,2829.29L754.153,2829.29L754.153,2806.3L845.669,2806.3Z" style="fill-rule:nonzero;"/>
            </g>
            <g transform="matrix(-0.863666,0,0,1.31818,2153.1,-945.067)">
                <path d="M845.669,2806.3L845.669,3280.7L754.153,3280.7L754.153,3260.09L807.166,3260.09L807.166,2829.29L754.153,2829.29L754.153,2806.3L845.669,2806.3Z" style="fill-rule:nonzero;"/>
            </g>
            <g transform="matrix(1.29274,0,0,1.29274,339.038,-742.891)">
                <text x="894.028px" y="2799.72px" style="font-family:'IBMPlexArabic', 'IBM Plex Arabic', sans-serif;font-size:84.396px;">4</text>
            </g>
            <g transform="matrix(1.29274,0,0,1.29274,338.329,-605.545)">
                <text x="894.028px" y="2799.72px" style="font-family:'IBMPlexArabic', 'IBM Plex Arabic', sans-serif;font-size:84.396px;">5</text>
            </g>
            <g transform="matrix(1.29274,0,0,1.29274,338.711,-468.198)">
                <text x="894.028px" y="2799.72px" style="font-family:'IBMPlexArabic', 'IBM Plex Arabic', sans-serif;font-size:84.396px;">6</text>
            </g>
            <g transform="matrix(-6.20301e-16,3.37676,-3.37676,-6.20301e-16,12448.7,1469.53)">
                <text x="511.967px" y="3236.95px" style="font-family:'IBMPlexArabic', 'IBM Plex Arabic', sans-serif;font-size:50.096px;">...</text>
            </g>
        </g>
        <g transform="matrix(1,0,0,1,786.159,-2.15)">
            <text x="375.111px" y="2643.53px" style="font-family:'IBMPlexArabic', 'IBM Plex Arabic', sans-serif;font-size:110.89px;">T<tspan x="430.778px 489.993px 528.14px 586.024px " y="2643.53px 2643.53px 2643.53px 2643.53px ">arge</tspan>t Data:</text>
        </g>
    </g>
</svg>
