<?xml version="1.0" encoding="UTF-8" standalone="no"?>
<!DOCTYPE svg PUBLIC "-//W3C//DTD SVG 1.1//EN" "http://www.w3.org/Graphics/SVG/1.1/DTD/svg11.dtd">
<svg width="100%" height="100%" viewBox="0 0 4000 4000" version="1.1" xmlns="http://www.w3.org/2000/svg" xmlns:xlink="http://www.w3.org/1999/xlink" xml:space="preserve" xmlns:serif="http://www.serif.com/" style="fill-rule:evenodd;clip-rule:evenodd;stroke-linecap:round;stroke-linejoin:round;stroke-miterlimit:1.5;">
    <g transform="matrix(1,0,0,0.91884,-22.8325,-281.26)">
        <rect x="226.183" y="1206.07" width="3593.3" height="1816.3" style="fill:rgb(235,235,235);"/>
    </g>
    <g transform="matrix(1,0,0,1,-177.708,-1468.55)">
        <rect x="549.329" y="2679.22" width="1109.84" height="379.357" style="fill:rgb(235,235,235);"/>
        <path d="M1667.5,2679.22C1667.5,2674.62 1663.77,2670.89 1659.17,2670.89L549.329,2670.89C544.726,2670.89 540.995,2674.62 540.995,2679.22L540.995,3058.58C540.995,3063.18 544.726,3066.91 549.329,3066.91L1659.17,3066.91C1663.77,3066.91 1667.5,3063.18 1667.5,3058.58L1667.5,2679.22ZM1659.17,2679.22L549.329,2679.22L549.329,3058.58L1659.17,3058.58L1659.17,2679.22Z"/>
        <g transform="matrix(0.720455,0,0,1,1604.23,264.399)">
            <rect x="549.329" y="2679.22" width="1109.84" height="379.357" style="fill:rgb(235,235,235);"/>
            <path d="M1670.74,2679.22C1670.74,2674.62 1665.56,2670.89 1659.17,2670.89L549.329,2670.89C542.941,2670.89 537.762,2674.62 537.762,2679.22L537.762,3058.58C537.762,3063.18 542.941,3066.91 549.329,3066.91L1659.17,3066.91C1665.56,3066.91 1670.74,3063.18 1670.74,3058.58L1670.74,2679.22ZM1659.17,2679.22L549.329,2679.22L549.329,3058.58L1659.17,3058.58L1659.17,2679.22Z"/>
        </g>
        <g transform="matrix(0.720455,0,0,1,2610.73,264.399)">
            <rect x="549.329" y="2679.22" width="1109.84" height="379.357" style="fill:rgb(235,235,235);"/>
            <path d="M1670.74,2679.22C1670.74,2674.62 1665.56,2670.89 1659.17,2670.89L549.329,2670.89C542.941,2670.89 537.762,2674.62 537.762,2679.22L537.762,3058.58C537.762,3063.18 542.941,3066.91 549.329,3066.91L1659.17,3066.91C1665.56,3066.91 1670.74,3063.18 1670.74,3058.58L1670.74,2679.22ZM1659.17,2679.22L549.329,2679.22L549.329,3058.58L1659.17,3058.58L1659.17,2679.22Z"/>
        </g>
        <g transform="matrix(0.58603,0,0,0.813417,1752.67,1337.1)">
            <rect x="549.329" y="2679.22" width="1109.84" height="379.357" style="fill:rgb(235,235,235);"/>
            <path d="M1673.39,2679.22C1673.39,2673.56 1667.02,2668.97 1659.17,2668.97L549.329,2668.97C541.475,2668.97 535.109,2673.56 535.109,2679.22L535.109,3058.58C535.109,3064.23 541.475,3068.82 549.329,3068.82L1659.17,3068.82C1667.02,3068.82 1673.39,3064.23 1673.39,3058.58L1673.39,2679.22ZM1659.17,2679.22L549.329,2679.22L549.329,3058.58L1659.17,3058.58L1659.17,2679.22Z"/>
        </g>
        <g transform="matrix(1,0,0,1,-1.13687e-13,528.798)">
            <rect x="549.329" y="2679.22" width="1109.84" height="379.357" style="fill:rgb(235,235,235);"/>
            <path d="M1667.5,2679.22C1667.5,2674.62 1663.77,2670.89 1659.17,2670.89L549.329,2670.89C544.726,2670.89 540.995,2674.62 540.995,2679.22L540.995,3058.58C540.995,3063.18 544.726,3066.91 549.329,3066.91L1659.17,3066.91C1663.77,3066.91 1667.5,3063.18 1667.5,3058.58L1667.5,2679.22ZM1659.17,2679.22L549.329,2679.22L549.329,3058.58L1659.17,3058.58L1659.17,2679.22Z"/>
        </g>
        <g transform="matrix(1,0,0,1,134.708,538.024)">
            <text x="765.983px" y="2835.24px" style="font-family:'IBMPlexArabic', 'IBM Plex Arabic', sans-serif;font-size:104.389px;">Netw<tspan x="1013.38px " y="2835.24px ">o</tspan>rk</text>
        </g>
        <g transform="matrix(1,0,0,1,1297.89,266.577)">
            <text x="765.983px" y="2835.24px" style="font-family:'IBMPlexArabic', 'IBM Plex Arabic', sans-serif;font-size:104.389px;">Netw<tspan x="1013.38px " y="2835.24px ">o</tspan>rk</text>
        </g>
        <g transform="matrix(0.858857,0,0,0.858857,2362.59,1130.41)">
            <text x="765.983px" y="2835.24px" style="font-family:'IBMPlexArabic', 'IBM Plex Arabic', sans-serif;font-size:104.389px;">F<tspan x="821.726px " y="2835.24px ">e</tspan>edback</text>
        </g>
        <g transform="matrix(1,0,0,1,2310.82,336.055)">
            <text x="765.983px" y="2835.24px" style="font-family:'IBMPlexArabic', 'IBM Plex Arabic', sans-serif;font-size:104.389px;">Ev<tspan x="877.261px " y="2835.24px ">a</tspan>luation</text>
        </g>
        <g transform="matrix(1,0,0,1,1385.16,809.264)">
            <text x="765.983px" y="2835.24px" style="font-family:'IBMPlexArabic', 'IBM Plex Arabic', sans-serif;font-size:104.389px;">Hyper<tspan x="1045.95px " y="2835.24px ">-</tspan></text>
            <text x="765.983px" y="2939.63px" style="font-family:'IBMPlexArabic', 'IBM Plex Arabic', sans-serif;font-size:104.389px;">par<tspan x="920.165px " y="2939.63px ">a</tspan>met<tspan x="1160.57px " y="2939.63px ">e</tspan>r</text>
        </g>
        <g transform="matrix(1,0,0,1,1342.2,391.85)">
            <text x="765.983px" y="2835.24px" style="font-family:'IBMPlexArabic', 'IBM Plex Arabic', sans-serif;font-size:104.389px;">T<tspan x="820.996px 858.889px " y="2835.24px 2835.24px ">ra</tspan>ining</text>
        </g>
        <g transform="matrix(1,0,0,1,224.153,655.01)">
            <text x="765.983px" y="2835.24px" style="font-family:'IBMPlexArabic', 'IBM Plex Arabic', sans-serif;font-size:104.389px;">Ar<tspan x="870.685px " y="2835.24px ">c</tspan>hit<tspan x="1044.81px " y="2835.24px ">e</tspan>ctur<tspan x="1288.34px " y="2835.24px ">e</tspan></text>
        </g>
        <g transform="matrix(0.175439,0,0,0.175439,599.821,2793.76)">
            <path d="M506,24L512.046,24.976C589.22,38.016 692.062,70.896 724,150C728.644,164.542 728.516,178.28 728.39,193.376L728.374,201.244C728.352,209.496 728.3,217.748 728.25,226C728.23,231.612 728.21,237.224 728.196,242.836C728.15,256.557 728.085,270.279 728,284C730.2,284.23 732.4,284.46 734.664,284.7C800.152,291.92 866.772,315.684 918,358L923.344,362.352C949.134,384.352 965.114,409.478 964,444C962.764,450.021 961.43,456.022 960,462L959.124,472.126C958.028,481.75 955.55,489.054 952,498L958.426,499.74C967.958,502.34 977.48,504.982 987,507.624L997.118,510.364L1006.69,513.04L1015.57,515.482L1022,518L1022,524L1015.5,522.076C1005.63,519.166 995.752,516.266 985.874,513.376L975.654,510.348C930.734,497.228 880.01,483.356 838,512C818.974,533.492 814.98,556.632 823.874,583.626C856.764,666.26 939.176,722.424 1019.09,754.972C1024,758 1024,758 1025.63,767.25L1024,776L1024,784C936.884,756.52 817.496,677.196 792,584C790.216,574.03 788.934,564.084 788,554C764.98,571.496 753.628,597.132 756,626C763.018,663.566 784.126,692.808 810,720L815.938,726.258C830.946,741.686 846.71,755.2 864,768L871.71,773.79C917.4,807.146 968.296,832.418 1022,850C1026.37,854.368 1024.08,864.2 1024,870C990.986,863.62 959.616,847.524 930,832L922.704,828.36C884.212,808.744 848.784,782.424 817.304,752.93C813.112,749.032 808.768,745.298 804.376,741.626C776.56,717.082 740,672.924 740,634C733.444,635.504 733.444,635.504 730,642C729.606,648.538 729.472,655.092 729.458,661.64L729.426,667.754C729.406,672.14 729.394,676.528 729.39,680.914C729.382,687.868 729.35,694.822 729.31,701.774C729.205,721.549 729.131,741.325 729.088,761.1C729.056,773.192 728.996,785.284 728.918,797.378C728.894,801.978 728.882,806.578 728.882,811.178C728.882,817.634 728.846,824.09 728.802,830.548L728.77,841.662C724.446,899.69 673.46,934.108 626,958C486.932,1022.83 299.912,1022.08 168.374,937.75C157.48,930.004 147.652,921.23 138,912L130.624,905.25C116.992,890.33 110.406,878.722 107.376,858.624C103.36,843.61 97.802,839.652 83.052,835.048C76.143,833.237 69.216,831.494 62.272,829.82C47.884,826.274 35.11,820.712 21.876,814.124L15.896,811.18C2.454,804.454 2.454,804.454 0,802C-0.083,794.667 -0.083,787.333 0,780L4.72,782.938C35.76,801.536 69.65,813.048 104,824L106.626,814C108.462,807.1 110.39,801.148 113.374,794.624C119.788,774.326 119.788,774.326 116,754C103.212,747.44 90.04,744.68 76.088,741.538C52.78,735.652 13.764,720.644 0,700C8.216,703.286 14.85,706.736 22.376,711.25C52.426,728.536 83.956,741.19 118,748C118.54,739.176 118.54,739.176 116,730C107.686,725.712 107.686,725.712 97.124,723.874C65.36,716.058 37.89,704.14 12,684L5.156,678.71L0,674L2,670L6.562,673.812C39.372,700.252 77.14,715.064 118,724C117.72,711.834 117.424,699.666 117.124,687.5L116.886,677.124C116.644,667.414 116.34,657.708 116,648L115.792,640.536C115.212,628.786 114.412,621.546 105.25,613.75L100.454,609.484C95.838,605.784 95.838,605.784 90,602L90,598L100,594C101.392,587.812 101.392,587.812 100.976,580.484L100.878,572.32L100.624,563.75L100.488,555.132C100.37,548.086 100.206,541.044 100,534C66.412,542.886 35.568,553.466 6,572L0,574C-1.976,553.494 -1.976,553.494 6.92,546.766C15.81,542.092 24.932,537.874 34.25,534.126C39.157,532.121 44.05,530.083 48.93,528.014C56,526 56,526 66.688,525.656C85.088,523.984 85.088,523.984 100,514C108.99,490.392 105.15,461.852 104.454,437.11C104.397,429.337 104.359,421.565 104.342,413.792C104.256,395.392 103.982,377.004 103.608,358.608C103.07,331.674 102.848,304.738 102.638,277.8C102.486,258.456 102.282,239.116 101.918,219.774L101.606,198.664L101.366,189.064C100.734,136.706 131.526,101.488 174,75C271.832,17.948 395.72,6.066 506,24ZM125.5,148.75C121.794,158.544 119.572,167.65 118,178L116.624,185.626C124.988,236.566 197.84,272.716 240.664,288.968C305.728,312.3 371.37,318.182 440,320C330.466,322.074 200.98,302.496 128,212C125.242,207.386 122.575,202.719 120,198L118,198C117.824,208.5 117.72,219 117.624,229.5L117.472,238.43C117.124,290.758 140.902,322.016 185.132,348.226C252.596,385.822 329.93,400.334 406.508,400.48C412.534,400.5 418.558,400.562 424.582,400.624C460.006,400.718 494.27,396.998 528.5,387.75L535.304,385.94C598.134,368.746 676.982,344.036 708,282C708.312,276.624 708.5,271.242 708.632,265.86L708.886,256.054L709.126,245.75L709.386,235.398C709.599,226.932 709.804,218.466 710,210C701.738,212.754 698.85,218.474 693.734,225.204C623.894,314.914 480.814,315.362 379.29,302.444C301.83,291.674 189.218,261.722 154.25,183.624C144.56,150.79 157.92,125.876 179.704,101.992C184,98 184,98 192,94L183.874,100.75C162.936,119.484 149.07,143.054 152,172C171,234.54 242.592,261.13 300,276C417.594,302.926 575.514,294.072 663.75,202C679.464,179.814 681.182,159.1 672,134C630.132,53.256 514.3,37.724 433.102,33.654C335.548,30.312 175.272,51.974 125.5,148.75ZM632,84C637.734,89.734 643.048,94.568 649.376,99.5C674.576,119.594 691.446,138.092 704,168L708,176C706.592,133.742 669.644,103.938 636,84L632,84ZM728,288C727.536,298.456 727.252,308.912 727,319.376L726.594,328.372C725.682,345.266 725.682,345.266 734.742,358.414L744,362L754.132,367C757.79,368.682 761.454,370.348 765.126,372L770.934,374.632C786.223,381.453 801.946,387.255 818,392C808.434,394.304 803.13,393.654 794.156,389.734L787.436,386.844L780.5,383.75L773.656,380.796C763.182,376.238 752.876,371.492 742.718,366.266C734.718,361.56 734.718,361.56 728,362C725.8,377.524 725.8,377.524 736.172,388.258L746.75,393.126L757.296,398.132L766,402L770,404C774.666,404.08 779.334,404.086 784,404L784,408C771.43,412.288 762.396,406.106 751.5,400.25L745.984,397.382C741.312,394.942 736.65,392.482 732,390L728,388C725.456,397.414 725.456,397.414 726,408C735.71,416.814 735.71,416.814 748,420L748,424L728,414L728,484C793.64,494.1 900.096,500.886 948,444C958.954,424.92 954.32,409.308 944.468,390.984C904.604,328.676 799.22,288 728,288ZM118,280C116.108,303.466 127.536,318.544 142,336L148.626,344.126C232.36,433.534 394.188,445.832 508,434C508.012,444.92 507.894,455.832 507.75,466.75L507.766,476.188L507.61,485.172L507.546,493.488C506,500 506,500 500.26,502.852L494,504L488.196,505.196C476.176,507.036 464.256,508.358 452.116,509.116C449.46,509.286 446.804,509.456 444.066,509.628L438,510C438.22,499.082 438.48,488.166 438.75,477.25C438.81,474.136 438.874,471.022 438.938,467.812L439.172,458.828L439.362,450.512C440,444 440,444 444,440C436.6,437.534 429.906,437.28 422.11,436.774C319.314,429.724 182.006,414.772 125.118,315.304C122.248,309.912 122.248,309.912 118,306C117.59,319.082 117.344,332.164 117.124,345.25L116.77,356.39C116.402,385.822 121.926,407.43 142.876,428.876L148.616,434.766C244.298,527.808 414.042,536.542 536.626,503.102C595.94,485.876 685.462,457.088 708,392C709.23,380.296 709.392,368.638 709.5,356.874L709.68,347.294C709.82,339.528 709.926,331.766 710,324C702.06,331.724 702.06,331.724 695.624,339.5C614.848,429.546 470.69,439.064 359.744,415.998C317.9,406.874 277.36,395.062 238,378L229.226,374.204C199.456,360.758 171.372,345.024 148,322L142.5,316.874C131.944,305.44 125.002,294.748 120,280L118,280ZM118,396C114.46,431.998 149.874,465 176.594,484.914C222.86,517.23 276.966,534.014 332,544L337.884,545.138C359.136,548.778 380.432,548.538 401.92,548.412C408.382,548.374 414.846,548.372 421.308,548.372C440.336,548.326 459.068,547.928 478,546C476.242,541.06 476.242,541.06 469.312,541.458L460.29,541.382L450.324,541.244L439.624,541.124C341.76,539.232 240.248,511.186 162,450L154.25,444C139.408,429.752 129.526,414.122 120,396L118,396ZM118,422C117.94,432.584 117.906,443.166 117.874,453.75L117.824,462.782C117.694,521.954 143.948,554.692 193.944,584.508C210.76,593.692 228.17,601.04 246,608L253.64,610.984C276.442,619.198 300.212,623.69 324,628L334.524,629.96C434.54,645.48 540.404,632.008 630,584L636.024,580.954C672.942,561.888 706.91,534.654 709.624,491.258C710.316,474.178 710.148,457.092 710,440C702.08,447.7 702.08,447.7 695.75,455.376C645.102,511.74 570,532.46 498,546L487.58,548.07C394.25,564.226 280.26,548.144 198,500L190.72,495.78C160.166,477.136 136.804,453.576 120,422L118,422ZM446,446C445.838,450.147 445.772,454.296 445.804,458.446L445.824,466.082L445.874,474.126L445.902,482.192C445.926,488.794 445.958,495.398 446,502L455.11,501.984C461.29,501.994 467.476,502.1 473.64,502.516C482.134,502.176 485.712,501.92 492,496C495.59,479.084 493.398,461.074 492,444C484.708,443.946 477.416,443.906 470.124,443.874L463.816,443.824C454.17,442.71 454.17,442.71 446,446ZM936.376,471.376C925.544,478.73 914.17,483.244 902,488C914.122,494.06 928.216,497.402 940.376,490.25C945.068,482.16 945.586,475.258 946,466C942.718,465.808 942.718,465.808 936.374,471.376L936.376,471.376ZM500,476L500,492L502,492L502,476L500,476ZM797,534.75C782.044,580.864 808.98,618.194 838,651.25C862.192,678.666 862.192,678.666 890,702L894,700C886.36,690.346 886.36,690.346 876,686L872,678C868.71,674.624 865.376,671.29 862,668C858.847,664.692 855.722,661.359 852.624,658L847.976,653C844,648 844,648 840,638L843.4,642.336C847.964,647.956 852.726,653.294 857.626,658.624C863.543,665.054 869.336,671.597 875,678.25C883.422,687.576 892.522,695.77 902,704L909,710.25L914,714L918,712C909.96,700.946 899.738,692.338 888.874,684.124C881.76,678.104 876.062,671.072 870,664L865.734,659.5C836.534,628.572 807.394,582.906 818.25,538.874C822.442,528.954 827.762,520.76 834,512L838,506C821.504,506 806.034,522.554 797,534.75ZM118,512C115.694,531.606 122.546,541.166 134,556L137.992,561.336C209.252,653.814 326.292,663.47 434,662C426.594,654.594 413.872,656.228 403.75,655.374C305.186,645.986 173.922,609.364 122.766,516.688C120.738,511.712 120.738,511.712 118,512ZM728,516L728,624C738.614,618.906 738.614,618.906 741.626,608C747.886,581.632 761.298,565.8 784.39,552.96C792.344,545.928 794.594,537.886 798,528L792.65,527.33C784.64,526.316 776.632,525.284 768.626,524.25L760.206,523.196L752.102,522.14L744.642,521.188C738,520 738,520 728,516ZM118,538C117.778,549.416 117.611,560.833 117.5,572.25L117.296,581.946C116.832,638.942 143.44,671.656 191,699.874C260.964,738.98 339.21,752.414 418.5,752.374L427.972,752.374C471.52,753.446 471.52,753.446 514,746L514,742L524.626,739.874C585.986,727.454 675.306,696.902 706,638C710.536,620.836 710.468,604.352 710.25,586.75L710.196,578.35C710.148,571.568 710.082,564.784 710,558C702.08,565.7 702.08,565.7 695.75,573.376C679.764,591.164 662.86,604.312 642,616L635.124,619.92C509.114,687.466 316.114,685.048 193.124,613.876C164.472,595.428 140.628,572.542 123.148,543.14C120.83,537.716 120.83,537.716 118,538ZM98,598L98,604L102,606L102,598L98,598ZM126,646C122.294,669.826 146.792,692.26 163.454,706.266C231.762,760.088 312.216,775.018 396.374,785.626L406.774,786.954C434.494,790.288 461.22,791.268 489,788L498.812,786.874L506,786C506.116,796.624 506.186,807.25 506.25,817.876C506.284,820.91 506.318,823.946 506.35,827.076L506.39,835.804L506.454,843.898C506,850 506,850 502,852L504,856C481.53,859.438 460.602,861.768 438,858L438,792C417.674,788.994 397.416,786.096 376.986,783.94C281.406,773.748 180.03,746.046 124,662L122,662C121.65,675.166 121.438,688.33 121.25,701.5L120.946,712.742C120.386,765.242 150.686,790.718 193.648,816.61C328.084,891.54 514.408,886.59 646,808C676.554,788.152 708.354,767.008 708.196,727.22L708.176,718.546L708.124,709.5L708.098,700.36C708.074,692.906 708.042,685.454 708,678C702.926,683.06 697.876,688.128 692.914,693.296C645.062,742.634 575.17,767.62 508,776L499.22,777.11C457.94,780.386 414.562,781 374,772L363.054,769.632C315.88,758.87 269.4,743.434 226,722L217.204,717.72C187.79,702.824 154.248,683.96 135.25,656.25C131.666,649.654 131.666,649.654 126,646ZM894,702L900,710L904,708C898.942,701.528 898.942,701.528 894,702ZM904,710L910,718L914,716C908.942,709.528 908.942,709.528 904,710ZM918,714L920,718L924,716L918,714ZM914,718L916,722L920,720L914,718ZM926,720L928,724L932,722L926,720ZM920,722L924,728L928,726L920,722ZM928,728L930,732L934,730L928,728ZM934,732L936,736L940,734L934,732ZM944,738L946,742L950,740L944,738ZM954,744L956,748L960,746L954,744ZM968,752C973.6,758.628 973.6,758.628 982,760C976.4,753.372 976.4,753.372 968,752ZM982,760C989.726,766.692 989.726,766.692 1000,768C992.274,761.308 992.274,761.308 982,760ZM1008,772L1012,776L1018,774L1008,772ZM124,760C125.278,805.336 175.314,835.094 211,855C284.326,893.328 371.654,904.472 453.376,904.25L462.05,904.274L470.524,904.266L478.084,904.258C487.414,903.954 496.71,902.928 506,902L506,972C482.672,974.146 459.36,976.242 436,978L436.368,972.436L438,947.5C438.19,944.61 438.38,941.72 438.58,938.742L439.126,930.342L439.632,922.6C439.904,917.74 440,912.868 440,908L434.16,907.424C200.99,884.134 200.99,884.134 134,795.876C129.246,787.47 129.246,787.47 124,788C115.318,835.752 120.28,875.376 159.376,908.562C280.514,1002.64 461.832,1002.18 600,950C610.98,945.166 621.52,939.83 632,934L638.58,930.446C680.842,906.852 709.256,876.692 710.21,827.016C710.245,816.677 710.175,806.338 710,796C703.106,797.652 703.106,797.652 698.374,805.75C635.678,888.384 498.564,900.696 404.374,889.626C396.229,888.556 388.103,887.347 380,886L373.8,884.992C300.086,872.58 225.486,846.12 166,800L160.484,795.9C148.144,786.482 138.114,775.726 128,764L124,760ZM448,796L448,852L492,852L492,794C477.32,794 462.64,794.874 448,796ZM450,910C445.164,929.346 445.728,950.148 446,970C451.918,969.72 457.834,969.424 463.75,969.124C467.044,968.964 470.34,968.8 473.734,968.632C481.508,968.56 481.508,968.56 486,966C486.752,960.36 486.752,960.36 486.828,953.554L487.062,945.918L487.25,937.874L487.484,929.808C487.674,923.206 487.844,916.604 488,910C481.709,909.791 475.417,909.624 469.124,909.5L458.508,909.22L450,910ZM490,910L490,964L492,964L492,910L490,910Z" style="fill-rule:nonzero;"/>
            <path d="M424.632,95.352L434.566,99.834L445.126,104.624C475.54,118.426 475.54,118.426 506.11,131.884L514.246,135.432C519.24,137.605 524.244,139.753 529.258,141.878C545.778,149.106 545.778,149.106 548,158C535.904,154.149 524.05,149.578 512.5,144.312L502.502,139.784L492,135L470.454,125.274C458.3,119.776 446.164,114.24 434.046,108.664L420.75,102.624L414.774,99.82C398.038,92.276 390.128,94.58 374,102C387.744,109.048 401.768,115.35 415.876,121.626C429.623,127.783 443.372,133.933 457.124,140.078C466.254,144.162 475.378,148.268 484.5,152.374L493.296,156.3L501.406,159.96L508.634,163.204C514,166 514,166 516,170C487.542,166.84 460.77,151.056 435.124,139.124C425.776,134.781 416.417,130.461 407.048,126.164C401.002,123.381 394.977,120.549 388.976,117.67L380.43,113.68L372.866,110.07C364.756,107.624 361.598,108.586 354,112L347.25,114L342,116L342,120L352,122C356.72,124.015 361.396,126.133 366.024,128.352L374.424,132.338L383.376,136.626C389.506,139.54 395.64,142.456 401.774,145.366L411.042,149.772C426.162,156.908 441.372,163.85 456.606,170.736C471.566,177.566 471.566,177.566 476,182C464.07,184.982 455.59,179.094 444.874,174.124L437.828,170.924C432.698,168.588 427.572,166.242 422.452,163.884C413.358,159.704 404.252,155.558 395.14,151.414C382.819,145.806 370.504,140.183 358.196,134.546L350.476,131.01C345.618,128.742 340.792,126.405 336,124C324.382,124.27 315.88,130.38 306,136L312.36,138.376C347.06,151.772 380.526,167.814 414,184C417.04,185.46 420.08,186.92 423.214,188.42C426.144,189.85 429.074,191.28 432.094,192.75L440.178,196.67C442.098,197.77 444.02,198.87 446,200L446,204C436.028,202.006 428.512,198.908 419.28,194.704L409.208,190.138L398.5,185.25L376.72,175.382L365.988,170.516C353.021,164.656 340.024,158.859 327,153.126C325.06,152.266 323.124,151.408 321.126,150.526C310.891,146.01 300.51,141.832 290,138C296.626,132.424 303.06,128.094 310.804,124.234L317.138,121.062L323.876,117.75L330.822,114.324C337.872,110.864 344.936,107.432 352,104L358.544,100.776C364.511,97.855 370.497,94.971 376.5,92.126L387.032,87.07C401.366,82.164 411.268,89.302 424.632,95.35L424.632,95.352ZM506,320C506.636,330.872 507.028,341.74 507.376,352.626L507.934,362.012C508.138,370.52 508.182,377.766 506,386C495.664,390.96 495.664,390.96 484,392L472,394L438,394L438,324L461.876,322L469.288,321.368C481.564,320.362 493.668,319.79 506,320ZM446,330C445.946,338.584 445.906,347.166 445.874,355.75L445.824,363.164C445.112,374.916 445.112,374.916 448,386C453.644,386.112 453.644,386.112 460.25,385.374L467.36,384.71C479.556,384.518 479.556,384.518 490,380C490.148,371.28 490.184,362.594 490.126,353.874L490.098,346.386C490.074,340.258 490.038,334.128 490,328C475.144,327.808 460.78,328.464 446,330ZM506,554C506.868,565.204 507.402,576.4 507.876,587.626L508.636,597.3C508.924,606.388 509,613.4 506,622C496.346,627.452 486.924,627.69 476,628C472.314,628.36 468.626,628.72 464.828,629.094L455.25,629.5L445.454,629.968C438,630 438,630 436,628C435.837,623.27 435.772,618.537 435.804,613.804L435.824,605.074L435.874,595.874L435.902,586.654C435.926,579.102 435.958,571.55 436,564L469.876,559L479.652,557.554L488.93,556.188L497.53,554.918C504,554 504,554 506,554ZM494,562L494,572L496,572L496,562L494,562ZM454.312,566.438C444.474,569.264 444.474,569.264 444.242,581.328C444.362,585.972 444.578,590.614 444.874,595.25L445.122,602.422C445.334,608.284 445.656,614.142 446,620C457.826,620.266 468.548,619.546 480.126,617.124L488.07,615.508L494,614L494,612L482,612C481.892,604.708 481.812,597.418 481.75,590.124C481.716,588.044 481.682,585.962 481.65,583.816C481.614,578.544 481.79,573.27 482,568L486,566L476.124,565.75L470.57,565.61C465.154,565.93 459.734,566.192 454.312,566.438ZM978,596L986,604C995.29,609.276 1004.74,614.188 1014.21,619.126C1022,624 1022,624 1024,632C1011.49,626.994 1000.09,620.32 988.434,613.624C977.882,607.57 977.882,607.57 966,606C956.23,610.646 956.23,610.646 954,616L959.324,617.634C965.662,619.88 970.998,622.518 976.812,625.868L982.82,629.3L989,632.876C993.06,635.208 997.124,637.54 1001.19,639.868C1003.07,640.954 1004.95,642.042 1006.88,643.164C1012.31,646.276 1012.31,646.276 1019.56,649.32L1024,652L1022,660L1014.08,655.454L1003.25,649.25L997.554,645.982C988.146,640.598 978.718,635.27 969.194,630.094L959.374,624.75L950.398,619.922C944,616 944,616 944,612C948.424,608.71 952.992,605.614 957.626,602.624L965.29,597.602C972,594 972,594 978,596ZM508,672C512.454,692.886 512.17,719.53 506,740C493.172,749.352 481.3,747.42 466,746C456,745.86 446,745.924 436,746C435.942,734.708 435.906,723.416 435.874,712.124L435.824,702.348L435.804,693.07L435.772,684.47C436,678 436,678 438,676C448.168,674.58 458.406,673.73 468.626,672.75L477.356,671.86L485.726,671.046L493.432,670.292C500,670 500,670 508,672ZM466.874,680L446,682L446,738L462,738C464.68,738.03 467.362,738.06 470.126,738.094C478.93,737.43 484.522,736.808 492,732C496.066,714.08 492.746,695.954 490,678C482.414,678 474.394,679.28 466.874,680ZM496,718L496,730L498,730L498,718L496,718Z" style="fill-rule:nonzero;"/>
        </g>
        <g transform="matrix(1.21716,0,0,1.21716,-294.009,-573.711)">
            <text x="894.028px" y="2799.72px" style="font-family:'IBMPlexArabic', 'IBM Plex Arabic', sans-serif;font-size:84.396px;">Data Col<tspan x="1212.54px " y="2799.72px ">l</tspan>ection +</text>
        </g>
        <g transform="matrix(1.29274,0,0,1.29274,-614.819,-1102.76)">
            <text x="894.028px" y="2799.72px" style="font-family:'IBMPlexArabic-Bold', 'IBM Plex Arabic', sans-serif;font-weight:700;font-size:84.396px;">Machine L<tspan x="1290.77px " y="2799.72px ">e</tspan>arning W<tspan x="1691.57px " y="2799.72px ">o</tspan>rkflo<tspan x="1924.75px " y="2799.72px ">w</tspan></text>
        </g>
        <g transform="matrix(1.21716,0,0,1.21716,-399.122,-607.465)">
            <text x="1130.01px" y="2929.35px" style="font-family:'IBMPlexArabic', 'IBM Plex Arabic', sans-serif;font-size:84.396px;">P<tspan x="1180.31px 1210.86px " y="2929.35px 2929.35px ">re</tspan>pr<tspan x="1336.7px 1383.96px 1425.9px 1472.24px 1512.83px " y="2929.35px 2929.35px 2929.35px 2929.35px 2929.35px ">ocess</tspan>ing</text>
        </g>
        <g transform="matrix(0.711369,0,0,0.711369,-831.895,1109.71)">
            <g transform="matrix(1,0,0,1,9.22506,-0.213059)">
                <g transform="matrix(1,0,0,1,113.435,-77.6228)">
                    <circle cx="2091.31" cy="3199.88" r="33.426" style="fill:rgb(235,235,235);"/>
                    <path d="M2091.31,3157.67C2068.01,3157.67 2049.1,3176.59 2049.1,3199.88C2049.1,3223.18 2068.01,3242.1 2091.31,3242.1C2114.61,3242.1 2133.52,3223.18 2133.52,3199.88C2133.52,3176.59 2114.61,3157.67 2091.31,3157.67ZM2091.31,3166.46C2109.76,3166.46 2124.74,3181.44 2124.74,3199.88C2124.74,3218.33 2109.76,3233.31 2091.31,3233.31C2072.86,3233.31 2057.89,3218.33 2057.89,3199.88C2057.89,3181.44 2072.86,3166.46 2091.31,3166.46Z"/>
                </g>
                <g transform="matrix(1,0,0,1,113.435,42.2092)">
                    <circle cx="2091.31" cy="3199.88" r="33.426" style="fill:rgb(235,235,235);"/>
                    <path d="M2091.31,3157.67C2068.01,3157.67 2049.1,3176.59 2049.1,3199.88C2049.1,3223.18 2068.01,3242.1 2091.31,3242.1C2114.61,3242.1 2133.52,3223.18 2133.52,3199.88C2133.52,3176.59 2114.61,3157.67 2091.31,3157.67ZM2091.31,3166.46C2109.76,3166.46 2124.74,3181.44 2124.74,3199.88C2124.74,3218.33 2109.76,3233.31 2091.31,3233.31C2072.86,3233.31 2057.89,3218.33 2057.89,3199.88C2057.89,3181.44 2072.86,3166.46 2091.31,3166.46Z"/>
                </g>
                <g transform="matrix(1,0,0,1,113.435,160.86)">
                    <circle cx="2091.31" cy="3199.88" r="33.426" style="fill:rgb(235,235,235);"/>
                    <path d="M2091.31,3157.67C2068.01,3157.67 2049.1,3176.59 2049.1,3199.88C2049.1,3223.18 2068.01,3242.1 2091.31,3242.1C2114.61,3242.1 2133.52,3223.18 2133.52,3199.88C2133.52,3176.59 2114.61,3157.67 2091.31,3157.67ZM2091.31,3166.46C2109.76,3166.46 2124.74,3181.44 2124.74,3199.88C2124.74,3218.33 2109.76,3233.31 2091.31,3233.31C2072.86,3233.31 2057.89,3218.33 2057.89,3199.88C2057.89,3181.44 2072.86,3166.46 2091.31,3166.46Z"/>
                </g>
            </g>
            <g transform="matrix(1,0,0,1,-73.509,-1.5914)">
                <g transform="matrix(1,0,0,1,340.301,-8.93904)">
                    <circle cx="2091.31" cy="3199.88" r="33.426" style="fill:rgb(235,235,235);"/>
                    <path d="M2091.31,3157.67C2068.01,3157.67 2049.1,3176.59 2049.1,3199.88C2049.1,3223.18 2068.01,3242.1 2091.31,3242.1C2114.61,3242.1 2133.52,3223.18 2133.52,3199.88C2133.52,3176.59 2114.61,3157.67 2091.31,3157.67ZM2091.31,3166.46C2109.76,3166.46 2124.74,3181.44 2124.74,3199.88C2124.74,3218.33 2109.76,3233.31 2091.31,3233.31C2072.86,3233.31 2057.89,3218.33 2057.89,3199.88C2057.89,3181.44 2072.86,3166.46 2091.31,3166.46Z"/>
                </g>
                <g transform="matrix(1,0,0,1,340.301,110.893)">
                    <circle cx="2091.31" cy="3199.88" r="33.426" style="fill:rgb(235,235,235);"/>
                    <path d="M2091.31,3157.67C2068.01,3157.67 2049.1,3176.59 2049.1,3199.88C2049.1,3223.18 2068.01,3242.1 2091.31,3242.1C2114.61,3242.1 2133.52,3223.18 2133.52,3199.88C2133.52,3176.59 2114.61,3157.67 2091.31,3157.67ZM2091.31,3166.46C2109.76,3166.46 2124.74,3181.44 2124.74,3199.88C2124.74,3218.33 2109.76,3233.31 2091.31,3233.31C2072.86,3233.31 2057.89,3218.33 2057.89,3199.88C2057.89,3181.44 2072.86,3166.46 2091.31,3166.46Z"/>
                </g>
            </g>
            <g transform="matrix(1,0,0,1,-358.643,0.651677)">
                <g transform="matrix(1,0,0,1,340.301,-8.93904)">
                    <circle cx="2091.31" cy="3199.88" r="33.426" style="fill:rgb(235,235,235);"/>
                    <path d="M2091.31,3157.67C2068.01,3157.67 2049.1,3176.59 2049.1,3199.88C2049.1,3223.18 2068.01,3242.1 2091.31,3242.1C2114.61,3242.1 2133.52,3223.18 2133.52,3199.88C2133.52,3176.59 2114.61,3157.67 2091.31,3157.67ZM2091.31,3166.46C2109.76,3166.46 2124.74,3181.44 2124.74,3199.88C2124.74,3218.33 2109.76,3233.31 2091.31,3233.31C2072.86,3233.31 2057.89,3218.33 2057.89,3199.88C2057.89,3181.44 2072.86,3166.46 2091.31,3166.46Z"/>
                </g>
                <g transform="matrix(1,0,0,1,340.301,110.893)">
                    <circle cx="2091.31" cy="3199.88" r="33.426" style="fill:rgb(235,235,235);"/>
                    <path d="M2091.31,3157.67C2068.01,3157.67 2049.1,3176.59 2049.1,3199.88C2049.1,3223.18 2068.01,3242.1 2091.31,3242.1C2114.61,3242.1 2133.52,3223.18 2133.52,3199.88C2133.52,3176.59 2114.61,3157.67 2091.31,3157.67ZM2091.31,3166.46C2109.76,3166.46 2124.74,3181.44 2124.74,3199.88C2124.74,3218.33 2109.76,3233.31 2091.31,3233.31C2072.86,3233.31 2057.89,3218.33 2057.89,3199.88C2057.89,3181.44 2072.86,3166.46 2091.31,3166.46Z"/>
                </g>
            </g>
            <g>
                <path d="M2109.9,3191.6L2177.39,3120.26" style="fill:none;stroke:black;stroke-width:5.86px;"/>
                <path d="M2177.39,3241.88L2109.9,3191.6L2177.39,3360.53" style="fill:none;stroke:black;stroke-width:5.86px;"/>
            </g>
            <g transform="matrix(-1,0,0,1,4428.21,0)">
                <path d="M2109.9,3191.6L2177.39,3120.26" style="fill:none;stroke:black;stroke-width:5.86px;"/>
                <path d="M2177.39,3241.88L2109.9,3191.6L2177.39,3360.53" style="fill:none;stroke:black;stroke-width:5.86px;"/>
            </g>
            <g>
                <path d="M2110.27,3311.43L2177.69,3360.53" style="fill:none;stroke:black;stroke-width:5.86px;"/>
                <path d="M2177.69,3240.39L2110.27,3311.43L2177.69,3122.19" style="fill:none;stroke:black;stroke-width:5.86px;"/>
            </g>
            <g transform="matrix(-1,0,0,1,4431.17,0)">
                <path d="M2110.27,3311.43L2177.69,3360.53" style="fill:none;stroke:black;stroke-width:5.86px;"/>
                <path d="M2177.69,3240.39L2110.27,3311.43L2177.69,3122.19" style="fill:none;stroke:black;stroke-width:5.86px;"/>
            </g>
        </g>
        <path d="M1664.72,2868.9L1782.38,2868.9L1782.38,3397.7L1666.98,3397.7" style="fill:none;stroke:black;stroke-width:8.33px;"/>
        <g>
            <g transform="matrix(0.947076,0,0,1,94.3307,0)">
                <path d="M1995.27,3133.3L1782.38,3133.3" style="fill:none;stroke:black;stroke-width:8.56px;"/>
            </g>
            <g transform="matrix(1.41109,0.305936,0.283138,1.26204,-1711.36,-1429.89)">
                <path d="M1991.67,3133.3L1977.23,3118.85" style="fill:none;stroke:black;stroke-width:5.11px;"/>
            </g>
            <g transform="matrix(1.47546,-0.365512,-0.338275,1.31307,107.495,-252.475)">
                <path d="M1991.67,3133.3L1978.18,3146.79" style="fill:none;stroke:black;stroke-width:7.96px;"/>
            </g>
        </g>
        <g transform="matrix(0.233045,0,0,0.233045,2503.34,3006.16)">
            <path d="M600,144C607.814,159.628 603.024,176.198 600.204,192.836L599.022,199.96C598.196,204.908 597.366,209.854 596.53,214.8C595.25,222.368 594,229.94 592.75,237.512L590.33,251.96L589.198,258.812C587.55,268.468 585.654,276.864 582,286C565.478,288.772 547.42,289.54 532,282C522.38,266.692 521.072,250.708 519.124,233C518.444,228.366 517.744,223.736 517.02,219.11C515.706,210.555 514.531,201.979 513.496,193.386C512.104,182.79 510.168,172.46 508,162C506.62,149.762 506.62,149.762 511.626,143.374C535.62,130.674 576.088,132.046 600,144ZM735.626,179.5C743.012,187.032 744.698,189.538 744,200C738.696,212.596 731.864,223.686 724.406,235.148C718.646,244.106 713.082,253.182 707.5,262.25C695.93,281.01 684.064,299.554 672,318C663.015,314.029 654.031,310.057 645.046,306.086L636,302L628.58,299.726C624,296 624,296 625.248,287.348C628.244,274.988 631.674,262.858 635.404,250.704L637.588,243.584C639.108,238.648 640.634,233.718 642.168,228.788C643.726,223.748 645.266,218.7 646.786,213.648C648.992,206.32 651.254,199.01 653.53,191.704L655.558,184.86C668.226,145.02 709.238,160.468 735.624,179.5L735.626,179.5ZM816,230C836.912,242.076 853.656,256.93 859.75,280.876C854.42,302.572 820.6,319.288 803.03,332.27C795.57,337.802 788.164,343.404 780.75,349L773.016,354.766C768.604,358.054 764.219,361.377 759.86,364.734C754.5,368.75 754.5,368.75 746,374C738,370 738,370 736,364L728,360C723.292,355.375 718.625,350.708 714,346L708,342C710.476,332.092 714.846,327.478 721.376,319.624L728.5,311L736,302C740.796,296.212 745.588,290.42 750.376,284.624L757.368,276.172C765.244,266.466 772.788,256.542 780.218,246.492C784,242 784,242 788,242L792,234C802.908,227.456 804.35,226.7 816,230ZM910,336C927.66,351.238 937.154,375.064 934,398C922.952,414.75 897.406,418.978 879.124,424.5L863.696,429.21L855.822,431.604C848.198,433.94 840.594,436.324 832.992,438.726L825.852,440.97C821.372,442.378 816.898,443.796 812.426,445.224C803.182,448.11 795.76,450 786,450C781.086,441.9 781.086,441.9 776.374,431.374L771.586,420.898C768,412 768,412 768,406C772.322,402.762 772.322,402.762 778.406,399.258L785.172,395.312L792.5,391.124L807.4,382.46L814.894,378.128C824.698,372.434 834.418,366.608 844.124,360.75L853.196,355.296C857.877,352.487 862.546,349.657 867.202,346.806C882.332,337.572 892.2,331.854 910,336ZM961.75,467.75C973.094,484.434 975.794,507.984 969.75,527.126C961.446,537.92 951.164,538.744 938.226,538.656L928.754,538.628C925.412,538.588 922.068,538.544 918.624,538.5L908.234,538.434C874.144,538.146 840.068,537.206 806,536C805.32,531 804.658,526 804,521L802.874,512.562L802,504L800.396,495.328C802,488 802,488 811.9,484.228C816.47,483.328 821.06,482.514 825.656,481.766L833.016,480.384C840.834,478.932 848.664,477.59 856.5,476.25C861.694,475.304 866.886,474.35 872.08,473.39C883.889,471.221 895.711,469.125 907.546,467.102C911.92,466.356 916.29,465.594 920.66,464.818C949.532,459.782 949.532,459.782 961.75,467.75ZM250,472C264.392,480.666 267.072,484.568 266.758,502.016C265.664,510.646 262.638,514.516 256,520C236.512,528.062 200.4,528.454 182.5,516.25C174.264,508.472 171.952,501.076 172.124,489.874C181.04,452.428 222.272,462.332 250,472ZM225.376,575.25L231.472,575.18C245.732,575.236 255.054,576.534 264.75,587.25C270.16,598.488 270.436,607.698 264.25,618.626C247.402,633.114 214.066,643.438 192,638C178.718,627.99 171.906,621.396 172.124,604.124C174.744,589.978 178.546,584.256 191.914,578.726C203.432,575.614 213.454,575.204 225.374,575.25L225.376,575.25ZM804,578C820.214,577.732 835.906,578.72 852.016,580.484L859.326,581.264C864.392,581.804 869.458,582.354 874.522,582.908C882.24,583.748 889.96,584.568 897.68,585.382L912.516,586.984L919.448,587.718C961.058,592.318 961.058,592.318 967.626,605C972.654,624.06 968.706,646.222 955.75,661.25C939.796,671.028 923.67,664.81 906.984,659.35C904.816,658.666 902.65,657.978 900.416,657.27C893.521,655.074 886.633,652.859 879.75,650.626C875.173,649.166 870.595,647.709 866.016,646.254C857.249,643.463 848.492,640.643 839.744,637.794C832.559,635.458 825.351,633.195 818.12,631.006L809.836,628.454L802.854,626.372C798,624 798,624 796.874,616.126L800,606C800.776,600.968 801.482,595.926 802.126,590.874C802.746,586.582 803.372,582.292 804,578ZM782,660C790.934,662.85 799.508,666.208 808.132,669.882L816.394,673.394L825.124,677.124L834.07,680.942L851.814,688.516C858.86,691.516 865.916,694.484 872.984,697.43C924.432,719.02 924.432,719.02 927,737C924.582,758.754 911.684,778.158 892,788C869.922,788 853.452,772.32 836.93,759.382C829.954,753.964 822.882,748.712 815.75,743.5L808.29,738.032C802.095,733.526 795.882,729.046 789.65,724.592C786.14,722.062 782.632,719.532 779.126,717L773.986,713.366C762,704.678 762,704.678 762,698C764.468,692.982 767.052,688.022 769.75,683.124L774.11,675.132L778,668L782,660ZM294.626,676.5C304.318,686.356 307.196,692.376 306,706C300.046,715.924 295.532,720.1 286.5,727L279.28,732.562C248.818,755.312 248.818,755.312 227.376,747.624C214.9,739.212 210,729.034 210,714.124C216.796,686.516 270.396,658.24 294.626,676.5ZM732,734C742.57,738.228 747.482,742.574 755.626,750.376C765.578,759.81 775.634,769.016 786,778C791.276,782.776 796.542,787.56 801.796,792.36C805.736,796.074 805.736,796.074 810,798L810,802L818,806C839.87,824.028 839.87,824.028 840.126,839.626C835.066,859.562 814.376,874.65 796,882C781.524,884.458 776.152,877.68 766,868C756.608,856.536 748.392,844.208 740,832L734.88,824.628C729.3,816.568 723.768,808.478 718.25,800.374L712.73,792.39L707.64,784.836L703.032,778.072C700,772 700,772 702,762L708,760L708,756C715.732,748.784 722.514,742.742 732,738L732,734ZM356,750C366.06,757.226 374.09,764.01 378,776C375.636,787.818 370.3,796.322 364,806.376L360.44,812.068C336.186,850.202 336.186,850.202 313.25,852.75C297.084,851.078 285.256,842.514 278,828C276.94,805.512 282.496,796.94 298.126,781.374L305.696,773.774C312,768 312,768 316,768L318,762C330.844,749.768 337.858,744.948 356,750ZM662,788C670.01,796.01 674.29,805.512 679.376,815.5C681.536,819.696 683.696,823.892 685.86,828.086L689.044,834.286C692.843,841.598 696.703,848.879 700.624,856.126L704.352,863.148C706.896,867.922 709.474,872.677 712.086,877.414C727.164,905.674 727.164,905.674 719.25,921.5C705.02,933.696 689.42,938.28 671.124,938.75L663.258,939.046C652.206,937.452 647.57,931.632 643.214,921.558C636.556,898.652 630.748,875.584 625.25,852.376L622.446,840.824L619.828,829.836L617.45,819.884C616,812 616,812 618,806C624.774,803 624.774,803 633.376,800C645.328,795.812 645.328,795.812 656.664,790.25L662,788ZM426,794C432.678,796.238 439.248,798.794 445.75,801.5L456.61,805.968C462.476,808.488 468.29,811.144 474,814C473.922,829.648 468.372,845.656 464.5,860.75L462.468,868.984C450.296,916.568 450.296,916.568 428,924C410.444,925.058 397.666,924.06 385.124,910.874C375.104,895.24 378.64,879.224 386.374,863.624C389.545,857.729 392.754,851.854 396,846C398.242,841.808 400.48,837.612 402.71,833.414C421.188,798.814 421.188,798.814 426,794ZM570,816C576.668,826.968 577.464,838.578 578.774,851.156L579.42,857.26C579.866,861.508 580.3,865.76 580.726,870.008C581.37,876.454 582.052,882.894 582.738,889.336C588.388,943.772 588.388,943.772 580.374,951.25C569.354,956.004 560.804,956.392 548.75,956.5L538.296,956.656C513.378,955.068 513.378,955.068 506,944C503.05,930.008 504.932,916.86 506.954,902.882L507.966,895.702C508.678,890.72 509.402,885.74 510.136,880.762C511.252,873.108 512.296,865.448 513.336,857.786C514.036,852.942 514.742,848.1 515.454,843.258L516.376,836.282C517.364,829.888 517.364,829.888 520,820C528.52,818.296 536.36,817.42 545,816.874L552.812,816.368C558.536,816.074 564.27,816 570,816Z" style="fill-rule:nonzero;"/>
        </g>
        <g transform="matrix(6.12323e-17,-1,1,6.12323e-17,-733.976,5326.77)">
            <g transform="matrix(0.788655,9.70048e-18,1.02426e-17,1,410.423,-1.12721e-13)">
                <path d="M1995.27,3133.3L1782.38,3133.3" style="fill:none;stroke:black;stroke-width:9.25px;"/>
            </g>
            <g transform="matrix(1.41109,0.305936,0.283138,1.26204,-1711.36,-1429.89)">
                <path d="M1991.67,3133.3L1977.23,3118.85" style="fill:none;stroke:black;stroke-width:5.11px;"/>
            </g>
            <g transform="matrix(1.47546,-0.365512,-0.338275,1.31307,107.495,-252.475)">
                <path d="M1991.67,3133.3L1978.18,3146.79" style="fill:none;stroke:black;stroke-width:7.96px;"/>
            </g>
        </g>
        <g transform="matrix(-0.840079,0.704202,-1.43089,-1.70698,9104.13,7449.28)">
            <path d="M2155.34,3145.45C2087.29,3119.63 1856.44,3105.8 1782.38,3133.3" style="fill:none;stroke:black;stroke-width:4.98px;stroke-linecap:butt;stroke-linejoin:miter;stroke-miterlimit:3;stroke-dasharray:4.98,4.98;"/>
        </g>
        <g transform="matrix(0.0585555,0.998284,-0.998284,0.0585555,6305.79,487.48)">
            <g transform="matrix(-0.406244,1.87374,-1.67583,0.375971,8960.19,-1203.52)">
                <path d="M1991.67,3133.3L1977.23,3118.85" style="fill:none;stroke:black;stroke-width:3.84px;"/>
            </g>
            <g transform="matrix(0.485353,1.95922,-1.74359,-0.449186,7396.73,1211.69)">
                <path d="M1991.67,3133.3L1978.18,3146.79" style="fill:none;stroke:black;stroke-width:6px;"/>
            </g>
        </g>
        <g transform="matrix(1,0,0,1,989.819,-0.475993)">
            <g transform="matrix(0.788655,9.70048e-18,1.02426e-17,1,410.423,-1.12721e-13)">
                <path d="M1995.27,3133.3L1782.38,3133.3" style="fill:none;stroke:black;stroke-width:9.25px;"/>
            </g>
            <g transform="matrix(1.41109,0.305936,0.283138,1.26204,-1711.36,-1429.89)">
                <path d="M1991.67,3133.3L1977.23,3118.85" style="fill:none;stroke:black;stroke-width:5.11px;"/>
            </g>
            <g transform="matrix(1.47546,-0.365512,-0.338275,1.31307,107.495,-252.475)">
                <path d="M1991.67,3133.3L1978.18,3146.79" style="fill:none;stroke:black;stroke-width:7.96px;"/>
            </g>
        </g>
        <g transform="matrix(1.27172,0,0,1.27172,-533.643,-476.142)">
            <g transform="matrix(0.0557306,0,0,0.0557306,3213.42,2730.3)">
                <path d="M2559.5,2653.5L2415,2507.3C2396.5,2488.6 2396.4,2458.5 2415,2439.9C2433.6,2421.3 2463.9,2421.2 2482.3,2439.9L2626.8,2586.1C2645.3,2604.8 2645.4,2634.9 2626.8,2653.5C2608.3,2672.1 2578,2672.1 2559.5,2653.5Z" style="fill:rgb(3,4,4);"/>
            </g>
            <g transform="matrix(0.0557306,0,0,0.0557306,3213.42,2730.3)">
                <path d="M2239.4,1564.5L1458.1,1564.5C1442.7,1564.5 1430.3,1552.1 1430.3,1536.7C1430.3,1521.3 1442.7,1508.9 1458.1,1508.9L2239.4,1508.9C2254.8,1508.9 2267.2,1521.3 2267.2,1536.7C2267.3,1552 2254.8,1564.5 2239.4,1564.5ZM1458.1,2660.2L2054.7,2660.2C2070.1,2660.2 2082.5,2672.6 2082.5,2688C2082.5,2703.4 2070.1,2715.8 2054.7,2715.8L1458.1,2715.8C1442.7,2715.8 1430.3,2703.4 1430.3,2688C1430.3,2672.6 1442.8,2660.2 1458.1,2660.2ZM1188.9,1649.1C1181.8,1649.1 1174.6,1646.4 1169.2,1641L1121.7,1593.5C1110.8,1582.6 1110.8,1565.1 1121.7,1554.2C1132.6,1543.3 1150.2,1543.3 1161.1,1554.2L1188.9,1582L1338.5,1432.4C1349.4,1421.5 1367,1421.5 1377.9,1432.4C1388.8,1443.3 1388.8,1460.8 1377.9,1471.7L1208.6,1641C1203.1,1646.4 1196,1649.1 1188.9,1649.1ZM1377.7,2239.3L1208.4,2408.6C1203,2414 1195.9,2416.7 1188.8,2416.7C1181.7,2416.7 1174.5,2414 1169.1,2408.6L1121.6,2361.1C1110.7,2350.2 1110.7,2332.7 1121.6,2321.8C1132.5,2310.9 1150.1,2310.9 1161,2321.8L1188.8,2349.6L1338.4,2200C1349.3,2189.1 1366.9,2189.1 1377.8,2200C1388.6,2210.8 1388.6,2228.4 1377.7,2239.3ZM1188.9,2733.3L1338.5,2583.7C1349.4,2572.8 1367,2572.8 1377.9,2583.7C1388.8,2594.6 1388.8,2612.1 1377.9,2623L1208.6,2792.3C1203.2,2797.7 1196.1,2800.4 1189,2800.4C1181.9,2800.4 1174.7,2797.7 1169.3,2792.3L1121.8,2744.8C1110.9,2733.9 1110.9,2716.4 1121.8,2705.5C1132.7,2694.6 1150.3,2694.6 1161.2,2705.5L1188.9,2733.3ZM1458.1,2276.4L1821.7,2276.4C1837.1,2276.4 1849.5,2288.8 1849.5,2304.2C1849.5,2319.6 1837.1,2332 1821.7,2332L1458.1,2332C1442.7,2332 1430.3,2319.6 1430.3,2304.2C1430.3,2288.9 1442.8,2276.4 1458.1,2276.4ZM924.4,1128.8L924.4,3095.8L2419.2,3095.8L2419.2,2597.7C2366.6,2625.1 2308.7,2638.9 2250.7,2638.9C2157.6,2638.9 2064.6,2603.4 1993.7,2532.6C1851.9,2390.9 1851.9,2160.4 1993.7,2018.7C2108.7,1903.7 2282,1882.1 2419,1953.6L2419,1128.8L2088.8,1128.8L2088.8,1250.5C2088.8,1265.9 2076.4,1278.3 2061,1278.3L1282.2,1278.3C1266.8,1278.3 1254.4,1265.9 1254.4,1250.5L1254.4,1128.8L924.4,1128.8ZM1993.8,2018.8M1377.7,1855.5L1208.4,2024.8C1203,2030.2 1195.9,2032.9 1188.8,2032.9C1181.7,2032.9 1174.5,2030.2 1169.1,2024.8L1121.6,1977.3C1110.7,1966.4 1110.7,1948.9 1121.6,1938C1132.5,1927.1 1150.1,1927.1 1161,1938L1188.8,1965.8L1338.4,1816.2C1349.3,1805.3 1366.9,1805.3 1377.8,1816.2C1388.6,1827 1388.6,1844.6 1377.7,1855.5ZM1934.4,1948.2L1458.2,1948.2C1442.8,1948.2 1430.4,1935.8 1430.4,1920.4C1430.4,1905 1442.8,1892.6 1458.2,1892.6L1934.4,1892.6C1949.8,1892.6 1962.2,1905 1962.2,1920.4C1962.3,1935.8 1949.8,1948.2 1934.4,1948.2Z" style="fill:rgb(3,4,4);"/>
            </g>
            <g transform="matrix(0.0557306,0,0,0.0557306,3213.42,2730.3)">
                <path d="M2584.5,2609.5L2540.6,2653.4L2842.7,2955.5C2854.4,2967.2 2870,2973.5 2886.5,2973.5C2903.2,2973.5 2918.7,2967.1 2930.4,2955.5C2942.1,2943.9 2948.4,2928.2 2948.4,2911.6C2948.4,2895 2941.9,2879.4 2930.4,2867.7L2628.3,2565.6L2584.5,2609.5Z" style="fill:rgb(3,4,4);"/>
            </g>
            <g transform="matrix(0.0557306,0,0,0.0557306,3213.42,2730.3)">
                <path d="M1393.2,979.3C1347.5,979.3 1310.2,1016.5 1310.2,1062.3L1310.2,1222.7L2033.3,1222.7L2033.3,1062.2C2033.3,1016.4 1996,979.2 1950.3,979.2L1793.1,979.2C1777.7,979.2 1765.3,966.8 1765.3,951.4L1765.3,865C1765.3,816.5 1725.8,777.1 1677.4,777.1L1666.1,777.1C1617.6,777.1 1578.2,816.5 1578.2,865L1578.2,951.4C1578.2,966.8 1565.8,979.2 1550.4,979.2L1393.2,979.3Z" style="fill:rgb(3,4,4);"/>
            </g>
            <g transform="matrix(0.0557306,0,0,0.0557306,3213.42,2730.3)">
                <path d="M2085.5,2319.4L2146.9,2380.8L2416.1,2111.7C2427,2100.8 2444.5,2100.8 2455.4,2111.7C2466.3,2122.6 2466.3,2140.1 2455.4,2151L2166.6,2439.8C2161.2,2445.2 2154.1,2447.9 2147,2447.9C2139.9,2447.9 2132.7,2445.2 2127.3,2439.8L2046.2,2358.7C2035.3,2347.8 2035.3,2330.2 2046.2,2319.4C2057,2308.5 2074.6,2308.5 2085.5,2319.4ZM2033.1,2058.1C1913.1,2178.1 1913.1,2373.4 2033.1,2493.4C2093.1,2553.4 2171.9,2583.4 2250.7,2583.4C2329.5,2583.4 2408.4,2553.4 2468.3,2493.4C2588.3,2373.4 2588.3,2178.1 2468.3,2058.1C2348.4,1938.1 2153.1,1938.1 2033.1,2058.1Z" style="fill:rgb(3,4,4);"/>
            </g>
        </g>
    </g>
</svg>
