<?xml version="1.0" encoding="UTF-8" standalone="no"?>
<!DOCTYPE svg PUBLIC "-//W3C//DTD SVG 1.1//EN" "http://www.w3.org/Graphics/SVG/1.1/DTD/svg11.dtd">
<svg width="100%" height="100%" viewBox="0 0 4000 4000" version="1.1" xmlns="http://www.w3.org/2000/svg" xmlns:xlink="http://www.w3.org/1999/xlink" xml:space="preserve" xmlns:serif="http://www.serif.com/" style="fill-rule:evenodd;clip-rule:evenodd;stroke-linecap:round;stroke-linejoin:round;stroke-miterlimit:1.5;">
    <g transform="matrix(2.08569,0,0,5.15967,-389.443,-12965.5)">
        <rect x="549.329" y="2679.22" width="1109.84" height="379.357" style="fill:rgb(235,235,235);"/>
    </g>
    <g transform="matrix(1,0,0,1,-1.96647,-13.3035)">
        <g transform="matrix(1.38188,0,0,1.38188,-342.08,-2847.66)">
            <text x="894.028px" y="2799.72px" style="font-family:'IBMPlexArabic-Bold', 'IBM Plex Arabic', sans-serif;font-weight:700;font-size:84.396px;">T<tspan x="939.517px 972.432px " y="2799.72px 2799.72px ">ra</tspan>in L<tspan x="1158.69px " y="2799.72px ">o</tspan>op</text>
        </g>
        <g transform="matrix(0.669699,1.82868e-17,8.69764e-18,1.88514,-2.20405,-4581.69)">
            <path d="M1995.27,3133.3L1782.38,3133.3" style="fill:none;stroke:black;stroke-width:5.89px;"/>
        </g>
        <g transform="matrix(1.89363,-0.132625,-0.122742,1.77155,-2048.71,-3960.71)">
            <path d="M1991.67,3133.3L1980.27,3121.89" style="fill:none;stroke:black;stroke-width:4.88px;"/>
        </g>
        <g transform="matrix(1.74565,0.269581,0.249492,1.65424,-2920.29,-4394.23)">
            <path d="M1991.67,3133.3L1978.18,3146.79" style="fill:none;stroke:black;stroke-width:4.25px;"/>
        </g>
        <g transform="matrix(0.669699,1.82868e-17,8.69764e-18,1.88514,701.336,-4582.58)">
            <path d="M1995.27,3133.3L1782.38,3133.3" style="fill:none;stroke:black;stroke-width:5.89px;"/>
        </g>
        <g transform="matrix(1.89363,-0.132625,-0.122742,1.77155,-1345.17,-3961.61)">
            <path d="M1991.67,3133.3L1980.27,3121.89" style="fill:none;stroke:black;stroke-width:4.88px;"/>
        </g>
        <g transform="matrix(1.74565,0.269581,0.249492,1.65424,-2216.75,-4395.12)">
            <path d="M1991.67,3133.3L1978.18,3146.79" style="fill:none;stroke:black;stroke-width:4.25px;"/>
        </g>
        <g transform="matrix(-1.39335e-16,0.637206,-1.85881,-3.21218e-16,8349.91,227.903)">
            <path d="M1995.27,3133.3L1782.38,3133.3" style="fill:none;stroke:black;stroke-width:6px;"/>
        </g>
        <g transform="matrix(0.130772,2.47942,-1.7468,-0.160712,7745.67,-2922.6)">
            <path d="M1991.67,3133.3L1976.18,3119.05" style="fill:none;stroke:black;stroke-width:4.17px;"/>
        </g>
        <g transform="matrix(0.0035589,2.67216,-1.86186,-0.00437368,8359.54,-3796.33)">
            <path d="M1991.67,3133.3L1978.18,3146.79" style="fill:none;stroke:black;stroke-width:3.62px;"/>
        </g>
        <g transform="matrix(-1.56377e-16,0.637206,-1.85881,-2.08711e-16,8363.31,227.903)">
            <path d="M1995.27,3133.3L1782.38,3133.3" style="fill:none;stroke:black;stroke-width:6px;"/>
        </g>
        <g transform="matrix(0.435376,1.82868e-17,5.65439e-18,1.88514,1715.22,-4581.69)">
            <path d="M1995.27,3133.3L1782.38,3133.3" style="fill:none;stroke:black;stroke-width:6.09px;"/>
        </g>
        <g transform="matrix(1.89363,-0.132625,-0.122742,1.77155,-798.826,-3960.71)">
            <path d="M1991.67,3133.3L1980.27,3121.89" style="fill:none;stroke:black;stroke-width:4.88px;"/>
        </g>
        <g transform="matrix(1.74565,0.269581,0.249492,1.65424,-1670.41,-4394.23)">
            <path d="M1991.67,3133.3L1978.18,3146.79" style="fill:none;stroke:black;stroke-width:4.25px;"/>
        </g>
        <g transform="matrix(-0.435376,1.82868e-17,-5.65439e-18,1.88514,3348.21,-4581.69)">
            <path d="M1995.27,3133.3L1782.38,3133.3" style="fill:none;stroke:black;stroke-width:6.09px;"/>
        </g>
        <g transform="matrix(-1.89363,-0.132625,0.122742,1.77155,5862.25,-3960.71)">
            <path d="M1991.67,3133.3L1980.27,3121.89" style="fill:none;stroke:black;stroke-width:4.88px;"/>
        </g>
        <g transform="matrix(-1.74565,0.269581,-0.249492,1.65424,6733.84,-4394.23)">
            <path d="M1991.67,3133.3L1978.18,3146.79" style="fill:none;stroke:black;stroke-width:4.25px;"/>
        </g>
        <g transform="matrix(-0.549755,-2.20391,2.11311,-0.223462,-3912.19,6597.24)">
            <path d="M1991.67,3133.3L1980.27,3121.89" style="fill:none;stroke:black;stroke-width:4.08px;"/>
        </g>
        <g transform="matrix(-0.0450427,-2.1131,1.89753,-0.637732,-4241.94,7714.4)">
            <path d="M1991.67,3133.3L1978.18,3146.79" style="fill:none;stroke:black;stroke-width:3.55px;"/>
        </g>
        <g transform="matrix(-0.158697,-2.26589,2.11981,0.146871,-5173.42,6375.66)">
            <path d="M1991.67,3133.3L1980.27,3121.89" style="fill:none;stroke:black;stroke-width:4.08px;"/>
        </g>
        <g transform="matrix(0.322578,-2.08882,1.97945,-0.29854,-5692.15,7418.59)">
            <path d="M1991.67,3133.3L1978.18,3146.79" style="fill:none;stroke:black;stroke-width:3.55px;"/>
        </g>
        <g transform="matrix(2.26589,-0.158697,-0.146871,2.11981,-2556.54,-3665.71)">
            <path d="M1991.67,3133.3L1980.27,3121.89" style="fill:none;stroke:black;stroke-width:4.08px;"/>
        </g>
        <g transform="matrix(2.08882,0.322578,0.29854,1.97945,-3599.46,-4184.44)">
            <path d="M1991.67,3133.3L1978.18,3146.79" style="fill:none;stroke:black;stroke-width:3.55px;"/>
        </g>
        <g transform="matrix(-0.625855,2.18352,-1.94174,-0.863033,8653.35,931.132)">
            <path d="M1991.67,3133.3L1980.27,3121.89" style="fill:none;stroke:rgb(93,93,93);stroke-width:3.06px;"/>
        </g>
        <g transform="matrix(-1.01754,1.85252,-1.96218,-0.396476,9497.5,128.518)">
            <path d="M1991.67,3133.3L1978.18,3146.79" style="fill:none;stroke:rgb(93,93,93);stroke-width:2.67px;"/>
        </g>
        <g transform="matrix(1,0,0,1,514.743,-1290.89)">
            <text x="375.111px" y="2643.53px" style="font-family:'IBMPlexArabic', 'IBM Plex Arabic', sans-serif;font-size:110.89px;">Input</text>
        </g>
        <g transform="matrix(1,0,0,1,1701.36,-1289.32)">
            <text x="375.111px" y="2643.53px" style="font-family:'IBMPlexArabic', 'IBM Plex Arabic', sans-serif;font-size:110.89px;">Output</text>
        </g>
        <g transform="matrix(1,0,0,1,2253.84,-1290.22)">
            <text x="375.111px" y="2643.53px" style="font-family:'IBMPlexArabic', 'IBM Plex Arabic', sans-serif;font-size:110.89px;">T<tspan x="430.778px 489.993px 528.14px 586.024px " y="2643.53px 2643.53px 2643.53px 2643.53px ">arge</tspan>t</text>
        </g>
        <g transform="matrix(1.23727,0,0,1.23727,1927.71,-1651.26)">
            <text x="375.111px" y="2643.53px" style="font-family:'IBMPlexArabic', 'IBM Plex Arabic', sans-serif;font-size:110.89px;">L<tspan x="429.558px 491.657px 544.995px " y="2643.53px 2643.53px 2643.53px ">oss</tspan></text>
        </g>
        <g transform="matrix(0.442453,0,0,0.840865,1122.58,-1099.03)">
            <rect x="549.329" y="2679.22" width="1109.84" height="379.357" style="fill:rgb(235,235,235);"/>
            <path d="M1678,2679.22C1678,2673.74 1669.57,2669.31 1659.17,2669.31L549.329,2669.31C538.927,2669.31 530.494,2673.74 530.494,2679.22L530.494,3058.58C530.494,3064.05 538.927,3068.49 549.329,3068.49L1659.17,3068.49C1669.57,3068.49 1678,3064.05 1678,3058.58L1678,2679.22ZM1659.17,2679.22L549.329,2679.22L549.329,3058.58L1659.17,3058.58L1659.17,2679.22Z"/>
        </g>
        <g transform="matrix(1,0,0,1,1034.76,-1347.54)">
            <text x="375.111px" y="2643.53px" style="font-family:'IBMPlexArabic', 'IBM Plex Arabic', sans-serif;font-size:110.89px;">LS<tspan x="493.653px " y="2643.53px ">T</tspan>M</text>
        </g>
        <g transform="matrix(1,0,0,1,1122.97,-1235.47)">
            <text x="375.111px" y="2643.53px" style="font-family:'IBMPlexArabic', 'IBM Plex Arabic', sans-serif;font-size:110.89px;">Model</text>
        </g>
        <g transform="matrix(1,0,0,1,162.009,-1701.89)">
            <text x="1945.61px" y="3125.17px" style="font-family:'IBMPlexArabic', 'IBM Plex Arabic', sans-serif;font-size:50.096px;">calculat<tspan x="2122.6px " y="3125.17px ">e</tspan>d b<tspan x="2219.78px " y="3125.17px ">y</tspan></text>
        </g>
        <g transform="matrix(1,0,0,1,198.73,-1652.95)">
            <text x="1945.61px" y="3125.17px" style="font-family:'IBMPlexArabic', 'IBM Plex Arabic', sans-serif;font-size:50.096px;">the model</text>
        </g>
        <g transform="matrix(0.533945,0,0,0.698684,1035.78,-756.308)">
            <text x="1969.01px" y="3171.53px" style="font-family:'IBMPlexArabic', 'IBM Plex Arabic', sans-serif;font-size:138.206px;">(</text>
        </g>
        <g transform="matrix(-0.464618,0,0,0.698684,3340.24,-756.308)">
            <text x="1969.01px" y="3171.53px" style="font-family:'IBMPlexArabic', 'IBM Plex Arabic', sans-serif;font-size:138.206px;">(</text>
        </g>
        <g transform="matrix(1,0,0,1,363.014,-1656.87)">
            <path d="M2176.09,3304.3C2098.73,3530.21 1296.11,3497.19 1252.06,3168.89" style="fill:none;stroke:black;stroke-width:8.33px;stroke-linecap:butt;stroke-linejoin:miter;stroke-miterlimit:3;"/>
        </g>
        <g transform="matrix(1,0,0,1,436.686,-1672.79)">
            <text x="1400.7px" y="3523.75px" style="font-family:'IBMPlexArabic', 'IBM Plex Arabic', sans-serif;font-size:65.295px;">gr<tspan x="1458.88px " y="3523.75px ">a</tspan>dient based</text>
        </g>
        <g transform="matrix(1,0,0,1,354.5,-1610.63)">
            <text x="1400.7px" y="3523.75px" style="font-family:'IBMPlexArabic', 'IBM Plex Arabic', sans-serif;font-size:65.295px;">par<tspan x="1497.14px " y="3523.75px ">a</tspan>met<tspan x="1647.52px " y="3523.75px ">e</tspan>r op<tspan x="1796.78px " y="3523.75px ">t</tspan>imization</text>
        </g>
        <g transform="matrix(1.52642,0,0,1.52642,-1227.4,-3161.38)">
            <text x="1400.7px" y="3523.75px" style="font-family:'IBMPlexArabic', 'IBM Plex Arabic', sans-serif;font-size:65.295px;">gr<tspan x="1458.88px " y="3523.75px ">a</tspan>dient based</text>
        </g>
        <g transform="matrix(1.52642,0,0,1.52642,-547.263,-3160.18)">
            <text x="1400.7px" y="3523.75px" style="font-family:'IBMPlexArabic', 'IBM Plex Arabic', sans-serif;font-size:65.295px;">op<tspan x="1474.75px " y="3523.75px ">t</tspan>imization:</text>
        </g>
        <g transform="matrix(1,0,0,1,355.054,-985.917)">
            <path d="M797.461,3308.85L797.461,3671.76" style="fill:none;stroke:black;stroke-width:8.33px;stroke-linecap:butt;stroke-linejoin:miter;stroke-miterlimit:3;"/>
        </g>
        <g transform="matrix(1,0,0,1,355.054,-985.917)">
            <path d="M797.461,3528.53C797.461,3528.53 837.664,3279.36 889.066,3439.02C940.468,3598.68 957.415,3679.74 989.799,3581.47C1016.93,3499.12 1026.34,3540.89 1029.93,3565.32C1030.56,3569.63 1031.67,3574.02 1032.01,3576.47" style="fill:none;stroke:black;stroke-width:8.33px;stroke-linecap:butt;stroke-linejoin:miter;stroke-miterlimit:3;"/>
        </g>
        <g transform="matrix(2.1047,0,0,2.1047,-1187.25,-4725.08)">
            <text x="1139.68px" y="3532.76px" style="font-family:'IBMPlexArabic', 'IBM Plex Arabic', sans-serif;font-size:27.832px;fill:rgb(0,181,3);stroke:rgb(0,181,3);stroke-width:0.48px;stroke-linecap:butt;stroke-miterlimit:2;">minimum</text>
        </g>
        <g transform="matrix(2.1047,0,0,2.1047,-1116.05,-4669.28)">
            <text x="1139.68px" y="3532.76px" style="font-family:'IBMPlexArabic', 'IBM Plex Arabic', sans-serif;font-size:27.832px;fill:rgb(0,181,3);stroke:rgb(0,181,3);stroke-width:0.48px;stroke-linecap:butt;stroke-miterlimit:2;">los<tspan x="1176.23px " y="3532.76px ">s</tspan></text>
        </g>
        <g transform="matrix(6.12323e-17,-1,1,6.12323e-17,-2145.9,3439.72)">
            <path d="M797.461,3308.85L797.461,3671.76" style="fill:none;stroke:black;stroke-width:8.33px;stroke-linecap:butt;stroke-linejoin:miter;stroke-miterlimit:3;"/>
        </g>
        <g transform="matrix(1,0,0,1,389.408,-1003.88)">
            <path d="M1031.35,3573.1C1031.35,3573.1 1032.53,3576.06 1032.98,3582.89C1034.25,3601.73 1053.39,3596.22 1083.45,3583.74C1137.44,3561.33 1112.15,3404.62 1159.34,3405.88C1206.53,3407.14 1226.05,3465.09 1225.37,3486.01" style="fill:none;stroke:black;stroke-width:8.33px;stroke-linecap:butt;stroke-linejoin:miter;stroke-miterlimit:3;"/>
        </g>
        <g transform="matrix(1.03344,0,0,1.01573,355.694,-1061.43)">
            <path d="M1110,3480.64L1132.33,3502.94" style="fill:none;stroke:rgb(255,0,0);stroke-width:8.13px;stroke-linecap:butt;stroke-linejoin:miter;stroke-miterlimit:3;"/>
        </g>
        <g transform="matrix(1.03344,0,0,1.01573,355.694,-1061.43)">
            <path d="M1132.33,3480.64L1110,3502.94" style="fill:none;stroke:rgb(255,0,0);stroke-width:8.13px;stroke-linecap:butt;stroke-linejoin:miter;stroke-miterlimit:3;"/>
        </g>
        <g transform="matrix(1.03344,0,0,1.01573,194.525,-926.463)">
            <path d="M1110,3480.64L1132.33,3502.94" style="fill:none;stroke:rgb(0,181,3);stroke-width:8.13px;stroke-linecap:butt;stroke-linejoin:miter;stroke-miterlimit:3;"/>
        </g>
        <g transform="matrix(1.03344,0,0,1.01573,194.525,-926.463)">
            <path d="M1132.33,3480.64L1110,3502.94" style="fill:none;stroke:rgb(0,181,3);stroke-width:8.13px;stroke-linecap:butt;stroke-linejoin:miter;stroke-miterlimit:3;"/>
        </g>
        <g transform="matrix(2.15384,0,0,2.15384,-928.108,-5073.78)">
            <text x="1139.68px" y="3532.76px" style="font-family:'IBMPlexArabic', 'IBM Plex Arabic', sans-serif;font-size:27.832px;fill:rgb(255,0,0);stroke:rgb(255,0,0);stroke-width:0.46px;stroke-linecap:butt;stroke-miterlimit:2;">actual</text>
        </g>
        <g transform="matrix(2.15384,0,0,2.15384,-899.753,-5018.45)">
            <text x="1139.68px" y="3532.76px" style="font-family:'IBMPlexArabic', 'IBM Plex Arabic', sans-serif;font-size:27.832px;fill:rgb(255,0,0);stroke:rgb(255,0,0);stroke-width:0.46px;stroke-linecap:butt;stroke-miterlimit:2;">los<tspan x="1176.23px " y="3532.76px ">s</tspan></text>
        </g>
        <g transform="matrix(1,0,0,1,389.408,-1003.88)">
            <path d="M1100.96,3485.7C1100.96,3485.7 997.065,3490.29 971.249,3553.72" style="fill:none;stroke:rgb(93,93,93);stroke-width:6.25px;stroke-linecap:butt;stroke-linejoin:miter;stroke-miterlimit:3;stroke-dasharray:6.25,6.25;"/>
        </g>
    </g>
</svg>
